<svg width="26" height="27" viewBox="0 0 26 27" fill="none" xmlns="http://www.w3.org/2000/svg">
<rect y="0.409668" width="26" height="26" rx="13" fill="#F2C56C" fill-opacity="0.2"/>
<path d="M14.8333 14.0346H10.3167C9.97498 14.0346 9.69165 13.7513 9.69165 13.4096V9.80127C9.69165 9.4596 9.97498 9.17627 10.3167 9.17627H14.8333C16.125 9.17627 17.2667 10.3096 17.2667 11.6096C17.2667 12.9429 16.175 14.0346 14.8333 14.0346ZM10.9417 12.7846H14.8333C15.4833 12.7846 16.0167 12.2513 16.0167 11.6013C16.0167 11.0513 15.5 10.4179 14.8333 10.4179H10.9417V12.7846Z" fill="#F2C56C"/>
<path d="M15.475 17.643H10.3167C9.97498 17.643 9.69165 17.3597 9.69165 17.018V13.4097C9.69165 13.068 9.97498 12.7847 10.3167 12.7847H15.475C16.9583 12.7847 18.1667 13.8763 18.1667 15.218C18.1667 16.5597 16.9583 17.643 15.475 17.643ZM10.9417 16.393H15.475C16.2667 16.393 16.9167 15.8597 16.9167 15.2097C16.9167 14.5597 16.275 14.0263 15.475 14.0263H10.9417V16.393Z" fill="#F2C56C"/>
<path d="M13.475 19.4514C13.1333 19.4514 12.85 19.1681 12.85 18.8264V17.0181C12.85 16.6764 13.1333 16.3931 13.475 16.3931C13.8166 16.3931 14.1 16.6764 14.1 17.0181V18.8264C14.1 19.1681 13.825 19.4514 13.475 19.4514Z" fill="#F2C56C"/>
<path d="M11.225 19.4514C10.8833 19.4514 10.6 19.1681 10.6 18.8264V17.0181C10.6 16.6764 10.8833 16.3931 11.225 16.3931C11.5666 16.3931 11.85 16.6764 11.85 17.0181V18.8264C11.85 19.1681 11.5666 19.4514 11.225 19.4514Z" fill="#F2C56C"/>
<path d="M13.475 10.4265C13.1333 10.4265 12.85 10.1432 12.85 9.8015V7.99316C12.85 7.6515 13.1333 7.36816 13.475 7.36816C13.8166 7.36816 14.1 7.6515 14.1 7.99316V9.8015C14.1 10.1432 13.825 10.4265 13.475 10.4265Z" fill="#F2C56C"/>
<path d="M11.225 10.4265C10.8833 10.4265 10.6 10.1432 10.6 9.8015V7.99316C10.6 7.6515 10.8833 7.36816 11.225 7.36816C11.5666 7.36816 11.85 7.6515 11.85 7.99316V9.8015C11.85 10.1432 11.5666 10.4265 11.225 10.4265Z" fill="#F2C56C"/>
<path d="M12.0333 10.4263H8.875C8.53333 10.4263 8.25 10.1429 8.25 9.80127C8.25 9.4596 8.53333 9.17627 8.875 9.17627H12.0333C12.375 9.17627 12.6583 9.4596 12.6583 9.80127C12.6583 10.1429 12.3833 10.4263 12.0333 10.4263Z" fill="#F2C56C"/>
<path d="M12.0333 17.6431H8.875C8.53333 17.6431 8.25 17.3597 8.25 17.0181C8.25 16.6764 8.53333 16.3931 8.875 16.3931H12.0333C12.375 16.3931 12.6583 16.6764 12.6583 17.0181C12.6583 17.3597 12.3833 17.6431 12.0333 17.6431Z" fill="#F2C56C"/>
</svg>
