<svg width="26" height="26" viewBox="0 0 26 26" fill="none" xmlns="http://www.w3.org/2000/svg">
<rect width="26" height="26" rx="13" fill="#00A478" fill-opacity="0.2"/>
<path d="M10.663 10.9359C11.115 10.9359 11.4899 11.3108 11.4899 11.7628V15.3461H15.0732C15.5253 15.3461 15.9001 15.721 15.9001 16.1731C15.9001 16.6251 15.5253 17 15.0732 17H10.663C10.2109 17 9.83603 16.6251 9.83603 16.1731V11.7628C9.83603 11.3108 10.2109 10.9359 10.663 10.9359Z" fill="#39A798"/>
<path d="M16.1758 9.83314C16.3853 9.83314 16.5948 9.91032 16.7602 10.0757C17.0799 10.3955 17.0799 10.9247 16.7602 11.2444L11.2474 16.7573C10.9276 17.077 10.3984 17.077 10.0786 16.7573C9.75889 16.4375 9.75889 15.9083 10.0786 15.5885L15.5915 10.0757C15.7569 9.91032 15.9663 9.83314 16.1758 9.83314Z" fill="#39A798"/>
</svg>
