<svg width="17" height="17" viewBox="0 0 17 17" fill="none" xmlns="http://www.w3.org/2000/svg">
<path d="M9.19997 11.3335H7.94666C7.05999 11.3335 6.33331 10.5868 6.33331 9.66682C6.33331 9.39349 6.55998 9.16682 6.83331 9.16682C7.10665 9.16682 7.33331 9.39349 7.33331 9.66682C7.33331 10.0335 7.60666 10.3335 7.94666 10.3335H9.19997C9.45997 10.3335 9.66665 10.1002 9.66665 9.81349C9.66665 9.45349 9.56665 9.40015 9.33999 9.32015L7.33331 8.62015C6.90665 8.47348 6.33331 8.16016 6.33331 7.18016C6.33331 6.34682 6.99332 5.66016 7.79999 5.66016H9.0533C9.93997 5.66016 10.6666 6.40682 10.6666 7.32682C10.6666 7.60016 10.44 7.82682 10.1666 7.82682C9.89331 7.82682 9.66665 7.60016 9.66665 7.32682C9.66665 6.96016 9.3933 6.66016 9.0533 6.66016H7.79999C7.53999 6.66016 7.33331 6.89349 7.33331 7.18016C7.33331 7.54016 7.43331 7.59348 7.65997 7.67348L9.66665 8.37348C10.0933 8.52015 10.6666 8.83349 10.6666 9.81349C10.6666 10.6535 10.0066 11.3335 9.19997 11.3335Z" fill="white"/>
<path d="M8.5 12C8.22667 12 8 11.7733 8 11.5V5.5C8 5.22667 8.22667 5 8.5 5C8.77333 5 9 5.22667 9 5.5V11.5C9 11.7733 8.77333 12 8.5 12Z" fill="white"/>
<path d="M8.49998 15.6668C4.54665 15.6668 1.33331 12.4535 1.33331 8.50016C1.33331 4.54683 4.54665 1.3335 8.49998 1.3335C8.77331 1.3335 8.99998 1.56016 8.99998 1.8335C8.99998 2.10683 8.77331 2.3335 8.49998 2.3335C5.09998 2.3335 2.33331 5.10016 2.33331 8.50016C2.33331 11.9002 5.09998 14.6668 8.49998 14.6668C11.9 14.6668 14.6666 11.9002 14.6666 8.50016C14.6666 8.22683 14.8933 8.00016 15.1666 8.00016C15.44 8.00016 15.6666 8.22683 15.6666 8.50016C15.6666 12.4535 12.4533 15.6668 8.49998 15.6668Z" fill="white"/>
<path d="M14.5 5.66667H11.8333C11.56 5.66667 11.3333 5.44 11.3333 5.16667V2.5C11.3333 2.22667 11.56 2 11.8333 2C12.1066 2 12.3333 2.22667 12.3333 2.5V4.66667H14.5C14.7733 4.66667 15 4.89333 15 5.16667C15 5.44 14.7733 5.66667 14.5 5.66667Z" fill="white"/>
<path d="M11.8333 5.66663C11.7066 5.66663 11.58 5.61996 11.48 5.51996C11.2866 5.32663 11.2866 5.00663 11.48 4.81329L14.8133 1.47996C15.0066 1.28663 15.3266 1.28663 15.52 1.47996C15.7133 1.67329 15.7133 1.99329 15.52 2.18663L12.1866 5.51996C12.0866 5.61996 11.96 5.66663 11.8333 5.66663Z" fill="white"/>
</svg>
