<svg width="17" height="17" viewBox="0 0 17 17" fill="none" xmlns="http://www.w3.org/2000/svg">
<path d="M9.20003 11.3332H7.94672C7.06005 11.3332 6.33337 10.5866 6.33337 9.66658C6.33337 9.39324 6.56004 9.16658 6.83337 9.16658C7.10671 9.16658 7.33337 9.39324 7.33337 9.66658C7.33337 10.0332 7.60672 10.3332 7.94672 10.3332H9.20003C9.46003 10.3332 9.66671 10.0999 9.66671 9.81324C9.66671 9.45324 9.56671 9.39991 9.34005 9.31991L7.33337 8.6199C6.90671 8.46657 6.33337 8.15991 6.33337 7.17991C6.33337 6.34658 6.99338 5.65991 7.80005 5.65991H9.05337C9.94003 5.65991 10.6667 6.40658 10.6667 7.32658C10.6667 7.59991 10.44 7.82658 10.1667 7.82658C9.89337 7.82658 9.66671 7.59991 9.66671 7.32658C9.66671 6.95991 9.39337 6.65991 9.05337 6.65991H7.80005C7.54005 6.65991 7.33337 6.89324 7.33337 7.17991C7.33337 7.53991 7.43337 7.59324 7.66003 7.67324L9.66671 8.37324C10.0934 8.52657 10.6667 8.83324 10.6667 9.81324C10.6667 10.6532 10.0067 11.3332 9.20003 11.3332Z" fill="white"/>
<path d="M8.5 12C8.22667 12 8 11.7733 8 11.5V5.5C8 5.22667 8.22667 5 8.5 5C8.77333 5 9 5.22667 9 5.5V11.5C9 11.7733 8.77333 12 8.5 12Z" fill="white"/>
<path d="M8.50004 15.6666C4.54671 15.6666 1.33337 12.4533 1.33337 8.49992C1.33337 4.54659 4.54671 1.33325 8.50004 1.33325C8.77337 1.33325 9.00004 1.55992 9.00004 1.83325C9.00004 2.10659 8.77337 2.33325 8.50004 2.33325C5.10004 2.33325 2.33337 5.09992 2.33337 8.49992C2.33337 11.8999 5.10004 14.6666 8.50004 14.6666C11.9 14.6666 14.6667 11.8999 14.6667 8.49992C14.6667 8.22659 14.8934 7.99992 15.1667 7.99992C15.44 7.99992 15.6667 8.22659 15.6667 8.49992C15.6667 12.4533 12.4534 15.6666 8.50004 15.6666Z" fill="white"/>
<path d="M15.1667 4.99992C14.8933 4.99992 14.6667 4.77325 14.6667 4.49992V2.33325H12.5C12.2267 2.33325 12 2.10659 12 1.83325C12 1.55992 12.2267 1.33325 12.5 1.33325H15.1667C15.44 1.33325 15.6667 1.55992 15.6667 1.83325V4.49992C15.6667 4.77325 15.44 4.99992 15.1667 4.99992Z" fill="white"/>
<path d="M11.8333 5.66663C11.7066 5.66663 11.58 5.61996 11.48 5.51996C11.2866 5.32663 11.2866 5.00663 11.48 4.81329L14.8133 1.47996C15.0066 1.28663 15.3266 1.28663 15.52 1.47996C15.7133 1.67329 15.7133 1.99329 15.52 2.18663L12.1866 5.51996C12.0866 5.61996 11.96 5.66663 11.8333 5.66663Z" fill="white"/>
</svg>
