<svg width="52" height="52" viewBox="0 0 52 52" fill="none" xmlns="http://www.w3.org/2000/svg">
<rect width="52" height="52" rx="12" fill="#D1E5FF"/>
<path d="M41.9419 44.8774C40.5349 41.0963 31.9295 39.2905 30.4228 38.1947C28.4882 36.7878 29.1036 32.1275 29.1036 32.1275L25.9382 32.2108L22.7725 32.1275C22.7725 32.1275 23.3882 36.7878 21.4537 38.1947C19.9469 39.2905 11.3415 41.0963 9.93456 44.8774C8.52765 48.6585 8 52 8 52H25.7624H26.114H43.8762C43.8762 52 43.3488 48.6585 41.9419 44.8774Z" fill="#A1444B"/>
<path d="M22.1863 37.3264C23.668 37.175 25.1577 36.8745 26.4479 36.1528C27.3885 35.6268 28.2353 35.0057 29.0214 34.3065C28.9747 33.109 29.1037 32.1275 29.1037 32.1275L25.9383 32.2108L22.7726 32.1275C22.7726 32.1275 23.2108 35.4444 22.1863 37.3264Z" fill="#7A3134"/>
<path d="M42.1912 44.8251C40.8208 41.142 32.6713 39.3196 30.7618 38.2051C29.2539 39.082 27.4147 39.599 25.4276 39.599C23.7013 39.599 22.0861 39.2089 20.7026 38.5317C18.0265 39.6707 11.1931 41.4808 9.94876 44.8251C8.53144 48.6339 8 52 8 52H25.893H26.2472H44.14C44.14 52 43.6086 48.6339 42.1912 44.8251Z" fill="#177DFF"/>
<path d="M20.6227 24.8622C20.1116 23.276 18.9009 23.6432 18.7875 23.6815C18.6688 23.6952 17.4173 23.8812 17.6336 25.5335C17.851 27.1959 18.8155 28.0967 19.7198 27.832C20.6507 27.6846 21.1371 26.4577 20.6227 24.8622Z" fill="#7A3134"/>
<path d="M31.095 24.8622C31.6063 23.276 32.8168 23.6432 32.9302 23.6815C33.0489 23.6952 34.3004 23.8812 34.0844 25.5335C33.8667 27.1959 32.9022 28.0967 31.9979 27.832C31.0673 27.6846 30.5806 26.4577 31.095 24.8622Z" fill="#7A3134"/>
<path d="M32.1505 22.3668C31.5169 15.4134 26.2307 15.8029 25.7322 15.8552C25.2336 15.8029 19.9474 15.4134 19.3137 22.3668C18.6765 29.3618 21.7921 33.9301 25.7322 33.6789C29.6723 33.9301 32.788 29.3618 32.1505 22.3668Z" fill="#A1444B"/>
<path d="M26.083 28.252C26.1015 28.2046 26.1263 28.1642 26.1493 28.1218C26.1713 28.0785 26.198 28.0399 26.224 28.0009C26.2773 27.924 26.3357 27.8525 26.397 27.7839C26.4602 27.7174 26.5226 27.6502 26.5929 27.5909C26.6603 27.5289 26.7332 27.4725 26.8087 27.4191L26.777 27.5104C26.7204 27.0502 26.6681 26.5893 26.6182 26.1279C26.5747 25.6655 26.5226 25.2046 26.4876 24.7411C26.5839 25.1958 26.6629 25.653 26.7505 26.1087C26.8321 26.5656 26.9109 27.0227 26.9857 27.4806L26.9928 27.5232L26.954 27.5722C26.8962 27.6448 26.8361 27.7146 26.7706 27.7785C26.7077 27.8454 26.6372 27.9041 26.5674 27.9635C26.4957 28.0213 26.4209 28.0757 26.3411 28.1247C26.3009 28.1486 26.2609 28.1732 26.2164 28.1928C26.1729 28.2136 26.1313 28.2361 26.083 28.252Z" fill="#7A3134"/>
<path d="M22.4431 24.8458C22.4431 25.3695 22.6376 25.7942 22.8773 25.7942C23.1172 25.7942 23.3115 25.3695 23.3115 24.8458C23.3115 24.3222 23.1172 23.8975 22.8773 23.8975C22.6376 23.8975 22.4431 24.3222 22.4431 24.8458Z" fill="#29202E"/>
<path d="M28.4092 24.8458C28.4092 25.3695 28.6037 25.7942 28.8434 25.7942C29.0833 25.7942 29.2776 25.3695 29.2776 24.8458C29.2776 24.3222 29.0833 23.8975 28.8434 23.8975C28.6037 23.8975 28.4092 24.3222 28.4092 24.8458Z" fill="#29202E"/>
<path d="M21.3774 23.2942C21.3774 23.2942 21.4529 23.067 21.6876 22.8032C21.7494 22.7415 21.8112 22.666 21.8928 22.6045C21.9704 22.5377 22.0589 22.4741 22.1585 22.418C22.2531 22.3548 22.3689 22.3156 22.481 22.2685C22.601 22.2394 22.7207 22.1965 22.8501 22.1937C22.914 22.1904 22.9779 22.1857 23.0415 22.1849C23.1052 22.1909 23.1686 22.2006 23.2311 22.2091C23.3581 22.2174 23.4712 22.2756 23.5822 22.3137C23.6932 22.3546 23.7814 22.4287 23.8706 22.4831C23.9622 22.5361 24.0204 22.6201 24.085 22.6809C24.1472 22.7443 24.2024 22.803 24.2372 22.8673C24.2767 22.927 24.3065 22.9821 24.3313 23.0263C24.3798 23.1155 24.4026 23.1681 24.4026 23.1681C24.4026 23.1681 24.3472 23.143 24.2594 23.0964C24.2161 23.0725 24.1631 23.045 24.1075 23.01C24.0535 22.9724 23.9816 22.9476 23.9116 22.9125C23.838 22.8844 23.7694 22.834 23.6847 22.8139C23.6014 22.7921 23.5221 22.7493 23.4339 22.7353C23.3451 22.7244 23.2599 22.6901 23.1679 22.6941C23.1227 22.6915 23.0775 22.6901 23.0321 22.6847L22.8946 22.6958C22.8021 22.6922 22.7115 22.7275 22.619 22.737C22.5298 22.7684 22.4361 22.7826 22.3502 22.8205C22.2621 22.8512 22.1767 22.8851 22.0965 22.9229C22.0135 22.9556 21.9394 22.9982 21.8653 23.0299C21.7936 23.068 21.7279 23.1025 21.6697 23.1333C21.6103 23.1659 21.5584 23.1943 21.5156 23.2178C21.4278 23.2665 21.3774 23.2942 21.3774 23.2942Z" fill="#29202E"/>
<path d="M27.3856 23.2942C27.3856 23.2942 27.4609 23.067 27.6956 22.8032C27.7576 22.7415 27.8193 22.666 27.901 22.6045C27.9786 22.5377 28.0671 22.4741 28.1667 22.418C28.2613 22.3548 28.3768 22.3156 28.489 22.2685C28.6092 22.2394 28.7286 22.1965 28.8581 22.1937C28.9222 22.1904 28.9861 22.1857 29.0495 22.1849C29.1134 22.1909 29.1766 22.2006 29.239 22.2091C29.3663 22.2174 29.4792 22.2756 29.5904 22.3137C29.7011 22.3546 29.7894 22.4287 29.8786 22.4831C29.9702 22.5361 30.0284 22.6201 30.093 22.6809C30.1554 22.7443 30.2106 22.803 30.2453 22.8673C30.2846 22.927 30.3144 22.9821 30.3393 23.0263C30.388 23.1155 30.4105 23.1681 30.4105 23.1681C30.4105 23.1681 30.3554 23.143 30.2676 23.0964C30.2243 23.0725 30.1713 23.045 30.1157 23.01C30.0615 22.9724 29.9898 22.9476 29.9198 22.9125C29.8459 22.8844 29.7773 22.834 29.6926 22.8139C29.6096 22.7921 29.5303 22.7493 29.4418 22.7353C29.3533 22.7244 29.2679 22.6901 29.1761 22.6941C29.1306 22.6915 29.0855 22.6901 29.0403 22.6847L28.9028 22.6958C28.8103 22.6922 28.7194 22.7275 28.6269 22.737C28.5377 22.7684 28.4442 22.7826 28.3583 22.8205C28.2701 22.8512 28.1849 22.8851 28.1045 22.9229C28.0216 22.9556 27.9476 22.9982 27.8735 23.0299C27.8016 23.068 27.736 23.1025 27.6776 23.1333C27.6182 23.1659 27.5664 23.1943 27.5238 23.2178C27.4358 23.2665 27.3856 23.2942 27.3856 23.2942Z" fill="#29202E"/>
<path d="M23.0853 29.2656L28.9446 29.2095C28.9446 29.2095 26.3979 31.5726 23.0853 29.2656Z" fill="white"/>
<path d="M18.9446 18.3815C18.9446 18.3815 18.5896 27.0771 19.5952 31.1586C20.3522 34.2306 22.5529 35.0628 22.5529 35.0628C22.5529 35.0628 27.7584 37.074 30.657 33.8206C31.4917 32.8836 32.7865 27.9644 32.195 19.1505L30.0654 18.2632C30.0654 18.2632 30.4204 22.5814 31.4851 23.1138C31.4851 23.1138 31.1721 30.8312 29.8288 31.7502C28.7049 32.5192 30.5978 28.201 28.4091 28.2601C26.2204 28.3193 26.1613 28.3784 26.1613 28.3784C26.1613 28.3784 22.2572 27.7277 22.3163 29.2657C22.3755 30.8037 22.7895 31.8093 22.2572 31.8093C21.7248 31.8093 19.7727 30.5671 20.1276 22.4631C20.1276 22.4631 21.2516 22.049 21.2516 19.2096C21.2516 15.4754 18.9446 18.3815 18.9446 18.3815Z" fill="#29202E"/>
<path d="M21.015 17.9081C21.015 17.9081 22.7167 20.2151 24.7417 20.2151C25.8656 20.2151 24.7417 18.263 24.7417 18.263C24.7417 18.263 26.3388 20.7475 27.9951 20.6883C29.6514 20.6292 28.2317 18.263 28.2317 18.263C28.2317 18.263 29.474 20.8066 31.012 20.6883C32.55 20.57 31.2486 18.0856 31.2486 18.0856C31.2486 18.0856 31.9584 20.7475 33.4373 20.3926C34.9161 20.0376 33.0823 17.7307 33.0823 17.7307C33.0823 17.7307 34.3246 18.9137 34.8569 18.8546C35.3893 18.7954 35.3893 17.1983 33.5556 16.4293C33.5556 16.4293 35.3893 16.3701 35.4485 15.4828C35.5154 14.4774 34.3246 14.1223 31.6035 14.4181C31.6035 14.4181 33.8513 13.4716 33.3781 12.6434C32.9049 11.8153 30.8937 12.9984 30.8937 12.9984C30.8937 12.9984 32.9049 11.8744 31.7218 10.9871C30.7507 10.2588 25.6881 10.2773 22.6122 13.9448C22.6122 13.9448 29.0007 10.5731 28.2317 10.0998C27.6887 9.7655 20.0463 11.4732 18.8855 14.7138C17.4658 18.6771 18.5306 20.9249 18.9896 23.6235L21.015 17.9081Z" fill="#29202E"/>
</svg>
